<svg width="646.6062499999999px" height="252.79999999999998px" xmlns="http://www.w3.org/2000/svg" viewBox="-73.30312499999997 -51.39999999999999 646.6062499999999 252.79999999999998" style="background: rgba(0, 0, 0, 0);" preserveAspectRatio="xMidYMid"><defs><filter id="editing-hole" x="-100%" y="-100%" width="300%" height="300%"><feFlood flood-color="#000000" result="black"></feFlood><feMorphology operator="dilate" radius="2" in="SourceGraphic" result="erode"></feMorphology><feGaussianBlur in="erode" stdDeviation="4" result="blur"></feGaussianBlur><feOffset in="blur" dx="2" dy="2" result="offset"></feOffset><feComposite operator="atop" in="offset" in2="black" result="merge"></feComposite><feComposite operator="in" in="merge" in2="SourceGraphic" result="inner-shadow"></feComposite></filter></defs><g filter="url(#editing-hole)"><g transform="translate(19.16104555130005, 125.04999732971191)"><path d="M8.29 0L8.29 0Q6.44 0 6.44-1.86L6.44-1.86L6.44-8.01L6.44-8.01Q6.44-9.15 7.15-10.30L7.15-10.30L59.20-90.38L59.20-90.38Q59.63-91.23 58.77-91.23L58.77-91.23L8.29-91.23L8.29-91.23Q6.44-91.23 6.44-93.09L6.44-93.09L6.44-98.24L6.44-98.24Q6.44-100.10 8.29-100.10L8.29-100.10L69.07-100.10L69.07-100.10Q70.93-100.10 70.93-98.24L70.93-98.24L70.93-92.09L70.93-92.09Q70.93-90.95 70.21-89.80L70.21-89.80L18.30-9.72L18.30-9.72Q17.88-8.87 18.73-8.87L18.73-8.87L69.07-8.87L69.07-8.87Q70.93-8.87 70.93-7.01L70.93-7.01L70.93-1.86L70.93-1.86Q70.93 0 69.07 0L69.07 0L8.29 0ZM156.73-93.09L156.73-93.09Q156.73-91.23 154.87-91.23L154.87-91.23L102.82-91.23L102.82-91.23Q102.10-91.23 102.10-90.52L102.10-90.52L102.10-55.48L102.10-55.48Q102.10-54.77 102.82-54.77L102.82-54.77L139.14-54.77L139.14-54.77Q141.00-54.77 141.00-52.91L141.00-52.91L141.00-47.76L141.00-47.76Q141.00-45.90 139.14-45.90L139.14-45.90L102.82-45.90L102.82-45.90Q102.10-45.90 102.10-45.19L102.10-45.19L102.10-9.58L102.10-9.58Q102.10-8.87 102.82-8.87L102.82-8.87L154.87-8.87L154.87-8.87Q156.73-8.87 156.73-7.01L156.73-7.01L156.73-1.86L156.73-1.86Q156.73 0 154.87 0L154.87 0L93.81 0L93.81 0Q91.95 0 91.95-1.86L91.95-1.86L91.95-98.24L91.95-98.24Q91.95-100.10 93.81-100.10L93.81-100.10L154.87-100.10L154.87-100.10Q156.73-100.10 156.73-98.24L156.73-98.24L156.73-93.09ZM180.32 0L180.32 0Q178.46 0 178.46-1.86L178.46-1.86L178.46-98.24L178.46-98.24Q178.46-100.10 180.32-100.10L180.32-100.10L186.76-100.10L186.76-100.10Q188.05-100.10 188.90-98.81L188.90-98.81L236.95-21.02L236.95-21.02Q237.24-20.59 237.52-20.66L237.52-20.66L237.52-20.66Q237.81-20.74 237.81-21.31L237.81-21.31L237.81-98.24L237.81-98.24Q237.81-100.10 239.67-100.10L239.67-100.10L246.10-100.10L246.10-100.10Q247.96-100.10 247.96-98.24L247.96-98.24L247.96-1.86L247.96-1.86Q247.96 0 246.10 0L246.10 0L239.67 0L239.67 0Q238.38 0 237.52-1.29L237.52-1.29L189.33-79.37L189.33-79.37Q189.05-79.79 188.76-79.72L188.76-79.72L188.76-79.72Q188.47-79.65 188.47-79.08L188.47-79.08L188.62-1.86L188.62-1.86Q188.62 0 186.76 0L186.76 0L180.32 0ZM276.56 0L276.56 0Q274.70 0 274.70-1.86L274.70-1.86L274.70-98.24L274.70-98.24Q274.70-100.10 276.56-100.10L276.56-100.10L283.00-100.10L283.00-100.10Q284.86-100.10 284.86-98.24L284.86-98.24L284.86-1.86L284.86-1.86Q284.86 0 283.00 0L283.00 0L276.56 0ZM371.66-100.10L371.66-100.10Q373.52-100.10 373.52-98.24L373.52-98.24L373.52-92.95L373.52-92.95Q373.52-91.09 371.66-91.09L371.66-91.09L344.20-91.09L344.20-91.09Q343.49-91.09 343.49-90.38L343.49-90.38L343.49-1.86L343.49-1.86Q343.49 0 341.63 0L341.63 0L335.19 0L335.19 0Q333.33 0 333.33-1.86L333.33-1.86L333.33-90.38L333.33-90.38Q333.33-91.09 332.62-91.09L332.62-91.09L306.31-91.09L306.31-91.09Q304.45-91.09 304.45-92.95L304.45-92.95L304.45-98.24L304.45-98.24Q304.45-100.10 306.31-100.10L306.31-100.10L371.66-100.10ZM416.99-0.14L416.99-0.14Q415.13-0.14 415.13-2.00L415.13-2.00L415.13-43.90L415.13-43.90Q415.13-44.19 414.84-44.76L414.84-44.76L385.53-97.81L385.53-97.81Q385.24-98.67 385.24-98.81L385.24-98.81L385.24-98.81Q385.24-99.39 385.67-99.74L385.67-99.74L385.67-99.74Q386.10-100.10 386.81-100.10L386.81-100.10L393.68-100.10L393.68-100.10Q395.25-100.10 395.82-98.81L395.82-98.81L419.71-55.63L419.71-55.63Q420.13-55.06 420.56-55.63L420.56-55.63L444.59-98.81L444.59-98.81Q445.30-100.10 446.73-100.10L446.73-100.10L453.60-100.10L453.60-100.10Q454.74-100.10 455.10-99.46L455.10-99.46L455.10-99.46Q455.46-98.81 454.88-97.81L454.88-97.81L425.57-44.76L425.57-44.76Q425.28-44.19 425.28-43.90L425.28-43.90L425.28-2.00L425.28-2.00Q425.28-0.14 423.42-0.14L423.42-0.14L416.99-0.14Z" fill="#ccc"></path></g></g><style>text {
  font-size: 64px;
  font-family: Arial Black;
  dominant-baseline: central;
  text-anchor: middle;
}</style></svg>